# xmcd
#
# Track frame offsets: 
#        150
#        21250
#        39552
#        55350
#        75622
#        95950
#        115215
#        133337
#        145855
#        164037
#        187670
#        214037
#
# Disc length: 3112 seconds
#
# Revision: 5
# Processed by: cddbd v1.5.2PL0 Copyright (c) Steve Scherf et al.
# Submitted via: ExactAudioCopy v0.99pb5
#
DISCID=af0c260c
DTITLE=Kenny Neal - What You Got
DYEAR=2000
DGENRE=Blues
TTITLE0=I Smell Smoke
TTITLE1=Two Wrongs Don't Make A Right
TTITLE2=Neal And Pray
TTITLE3=Little Brother (Make A Way)
TTITLE4=What You Got
TTITLE5=Blues Ain't Nothing But A Good Man Feeling Bad
TTITLE6=Deja Vu
TTITLE7=I'm The Man Your Mama Told You About
TTITLE8=Loving On Borrowed Time
TTITLE9=You've Been Spying On Me
TTITLE10=Never Thought About Growing Old
TTITLE11=Killed The Goose That Laid The Golden Egg
EXTD=YEAR: 2000
EXTT0=
EXTT1=
EXTT2=
EXTT3=
EXTT4=
EXTT5=
EXTT6=
EXTT7=
EXTT8=
EXTT9=
EXTT10=
EXTT11=
PLAYORDER=
